# xmcd
#
# Track frame offsets: 
#        150
#        15644
#        40262
#        57398
#        78598
#        99914
#        117746
#        140331
#        160077
#        174542
#        201796
#
# Disc length: 2932 seconds
#
# Revision: 0
# Processed by: cddbd v1.5.2PL0 Copyright (c) Steve Scherf et al.
# Submitted via: ExactAudioCopyFreeDBPlugin 1.0
#
DISCID=900b720b
DTITLE=Sayer and Joyce - Makes You Stronger
DYEAR=2018
DGENRE=Blues
TTITLE0=Backbone
TTITLE1=Hard Love
TTITLE2=My Life Alive
TTITLE3=Life Is What Happens
TTITLE4=We'd Both Be Wrong
TTITLE5=I Get Up Again
TTITLE6=The Things We Used To Do
TTITLE7=No Galahad
TTITLE8=Too Much, Too Soon
TTITLE9=Broken
TTITLE10=Needful Things
EXTD=
EXTT0=
EXTT1=
EXTT2=
EXTT3=
EXTT4=
EXTT5=
EXTT6=
EXTT7=
EXTT8=
EXTT9=
EXTT10=
PLAYORDER=
